<?xml version="1.0" encoding="UTF-8" standalone="no"?>
<!DOCTYPE svg PUBLIC "-//W3C//DTD SVG 1.1//EN" "http://www.w3.org/Graphics/SVG/1.1/DTD/svg11.dtd">
<!-- Created with Vectornator (http://vectornator.io/) -->
<svg height="100%" stroke-miterlimit="10" style="fill-rule:nonzero;clip-rule:evenodd;stroke-linecap:round;stroke-linejoin:round;" version="1.1" viewBox="0 0 519.589 151.965" width="100%" xml:space="preserve" xmlns="http://www.w3.org/2000/svg" xmlns:xlink="http://www.w3.org/1999/xlink">
<defs>
<clipPath id="TextBounds">
<rect height="151.965" width="519.589" x="-2.65119e-05" y="0"/>
</clipPath>
<radialGradient cx="325.027" cy="76.0505" gradientTransform="matrix(1 0 0 1 -94.1875 421.482)" gradientUnits="userSpaceOnUse" id="RadialGradient" r="320.2">
<stop offset="0" stop-color="#cae5f1"/>
<stop offset="0.408582" stop-color="#29a0c4"/>
<stop offset="0.845149" stop-color="#056998"/>
</radialGradient>
</defs>
<g id="Layer-1">
<g fill="url(#RadialGradient)" opacity="1" stroke="#000000" stroke-linecap="round" stroke-linejoin="round" stroke-width="5.38626">
<path clip-path="url(#TextBounds)" d="M78.6879 52.2694L78.6879 99.9086C78.6879 103.304 78.5765 106.074 78.3535 108.217C78.1306 110.361 77.8133 111.913 77.4018 112.873C75.0695 118.841 70.1136 121.825 62.5338 121.825C58.2809 121.825 55.0569 121.242 52.8619 120.076C50.6669 118.909 49.5693 117.212 49.5693 114.982C49.5693 113.336 50.0667 111.99 51.0613 110.944C52.0559 109.898 53.3592 109.375 54.9712 109.375C55.177 109.375 55.5114 109.4 55.9744 109.452C56.4374 109.503 57.1234 109.563 58.0323 109.632C58.9411 109.701 59.5671 109.735 59.91 109.735C61.7964 109.735 63.0568 108.997 63.6913 107.523C64.3258 106.048 64.6431 103.407 64.6431 99.5999L64.6431 52.2694C64.6431 49.4913 65.2948 47.3991 66.5981 45.9929C67.9014 44.5867 69.6162 43.8836 71.7427 43.8836C73.8005 43.8836 75.4725 44.5782 76.7587 45.9672C78.0448 47.3563 78.6879 49.457 78.6879 52.2694ZM71.7427 37.35C69.7877 37.35 68.1157 36.7498 66.7267 35.5494C65.3376 34.3489 64.6431 32.6512 64.6431 30.4562C64.6431 28.4669 65.3548 26.8292 66.7781 25.5431C68.2015 24.2569 69.8563 23.6138 71.7427 23.6138C73.5604 23.6138 75.1724 24.1969 76.5786 25.363C77.9848 26.5291 78.6879 28.2268 78.6879 30.4562C78.6879 32.6169 78.002 34.3061 76.6301 35.5236C75.2582 36.7412 73.629 37.35 71.7427 37.35Z" fill-rule="evenodd"/>
<path clip-path="url(#TextBounds)" d="M92.3958 100.989C90.2694 100.989 88.4345 100.303 86.8911 98.9311C85.3477 97.5592 84.576 95.6386 84.576 93.1692C84.576 91.077 85.3134 89.2764 86.7882 87.7673C88.263 86.2582 90.0808 85.5037 92.2415 85.5037C94.4022 85.5037 96.2457 86.2496 97.772 87.7416C99.2982 89.2335 100.061 91.0427 100.061 93.1692C100.061 95.6043 99.2982 97.5164 97.772 98.9054C96.2457 100.294 94.4537 100.989 92.3958 100.989Z" fill-rule="evenodd"/>
<path clip-path="url(#TextBounds)" d="M156.418 83.6002C156.418 85.3493 155.895 87.2185 154.849 89.2078C153.803 91.197 152.208 93.092 150.065 94.8926C147.921 96.6932 145.22 98.1423 141.962 99.2398C138.704 100.337 135.034 100.886 130.952 100.886C122.275 100.886 115.501 98.3567 110.631 93.2978C105.761 88.2389 103.326 81.4566 103.326 72.9508C103.326 67.1888 104.44 62.0956 106.67 57.6712C108.899 53.2469 112.123 49.8257 116.342 47.4077C120.56 44.9897 125.602 43.7808 131.467 43.7808C135.102 43.7808 138.438 44.3124 141.473 45.3756C144.508 46.4388 147.081 47.8107 149.19 49.4913C151.299 51.1719 152.911 52.9639 154.026 54.8674C155.141 56.7709 155.698 58.5458 155.698 60.1921C155.698 61.8727 155.072 63.296 153.82 64.4621C152.568 65.6283 151.051 66.2113 149.267 66.2113C148.101 66.2113 147.132 65.9112 146.36 65.311C145.589 64.7108 144.723 63.7419 143.762 62.4043C142.048 59.7977 140.255 57.8427 138.386 56.5394C136.517 55.2361 134.142 54.5845 131.261 54.5845C127.111 54.5845 123.767 56.205 121.229 59.4461C118.691 62.6873 117.422 67.1202 117.422 72.745C117.422 75.3859 117.748 77.8124 118.399 80.0246C119.051 82.2368 119.994 84.1232 121.229 85.6837C122.464 87.2443 123.956 88.4275 125.705 89.2335C127.454 90.0395 129.375 90.4425 131.467 90.4425C134.279 90.4425 136.689 89.7909 138.695 88.4875C140.701 87.1842 142.476 85.195 144.02 82.5198C144.877 80.9421 145.803 79.7074 146.798 78.8157C147.792 77.9239 149.01 77.478 150.45 77.478C152.165 77.478 153.589 78.1297 154.72 79.433C155.852 80.7363 156.418 82.1254 156.418 83.6002Z" fill-rule="evenodd"/>
<path clip-path="url(#TextBounds)" d="M211.232 72.4363C211.232 76.6206 210.58 80.4791 209.277 84.0117C207.973 87.5444 206.087 90.5797 203.618 93.1177C201.148 95.6557 198.199 97.6021 194.769 98.9569C191.339 100.312 187.481 100.989 183.193 100.989C178.941 100.989 175.116 100.303 171.721 98.9311C168.325 97.5592 165.384 95.5957 162.898 93.0405C160.411 90.4854 158.525 87.4672 157.239 83.986C155.953 80.5048 155.31 76.6549 155.31 72.4363C155.31 68.1834 155.961 64.2907 157.265 60.758C158.568 57.2254 160.437 54.2072 162.872 51.7035C165.307 49.1998 168.257 47.2705 171.721 45.9158C175.185 44.561 179.009 43.8836 183.193 43.8836C187.446 43.8836 191.305 44.5696 194.769 45.9415C198.233 47.3134 201.2 49.2684 203.669 51.8064C206.138 54.3444 208.016 57.3626 209.302 60.8609C210.589 64.3593 211.232 68.2177 211.232 72.4363ZM197.135 72.4363C197.135 66.7086 195.875 62.25 193.354 59.0603C190.833 55.8706 187.446 54.2758 183.193 54.2758C180.45 54.2758 178.032 54.9875 175.94 56.4108C173.847 57.8342 172.235 59.9349 171.104 62.713C169.972 65.4911 169.406 68.7322 169.406 72.4363C169.406 76.1061 169.963 79.313 171.078 82.0568C172.193 84.8006 173.787 86.9013 175.862 88.3589C177.937 89.8166 180.381 90.5454 183.193 90.5454C187.446 90.5454 190.833 88.942 193.354 85.7352C195.875 82.5284 197.135 78.0954 197.135 72.4363Z" fill-rule="evenodd"/>
<path clip-path="url(#TextBounds)" d="M258.997 73.4652L258.997 92.1402C258.997 95.0898 258.328 97.302 256.991 98.7768C255.653 100.252 253.887 100.989 251.692 100.989C249.565 100.989 247.842 100.252 246.521 98.7768C245.201 97.302 244.541 95.0898 244.541 92.1402L244.541 69.7611C244.541 66.2285 244.421 63.4847 244.18 61.5297C243.94 59.5748 243.289 57.9713 242.226 56.7195C241.162 55.4676 239.482 54.8417 237.184 54.8417C232.588 54.8417 229.561 56.4194 228.104 59.5748C226.646 62.7301 225.917 67.2574 225.917 73.1566L225.917 92.1402C225.917 95.0555 225.257 97.2591 223.936 98.7511C222.616 100.243 220.875 100.989 218.715 100.989C216.588 100.989 214.848 100.243 213.493 98.7511C212.138 97.2591 211.461 95.0555 211.461 92.1402L211.461 51.9607C211.461 49.3198 212.069 47.3134 213.287 45.9415C214.505 44.5696 216.108 43.8836 218.097 43.8836C220.018 43.8836 221.621 44.5267 222.907 45.8129C224.194 47.099 224.837 48.8739 224.837 51.1376L224.837 52.4752C227.272 49.5599 229.878 47.4163 232.657 46.0444C235.435 44.6725 238.521 43.9865 241.917 43.9865C245.449 43.9865 248.485 44.6896 251.023 46.0958C253.561 47.502 255.653 49.6285 257.299 52.4752C259.666 49.5942 262.204 47.4592 264.913 46.0701C267.623 44.6811 270.624 43.9865 273.916 43.9865C277.758 43.9865 281.067 44.7411 283.846 46.2502C286.624 47.7593 288.699 49.92 290.071 52.7324C291.271 55.2704 291.871 59.2661 291.871 64.7194L291.871 92.1402C291.871 95.0898 291.202 97.302 289.865 98.7768C288.527 100.252 286.761 100.989 284.566 100.989C282.439 100.989 280.699 100.243 279.344 98.7511C277.989 97.2591 277.312 95.0555 277.312 92.1402L277.312 68.5264C277.312 65.5082 277.183 63.0902 276.926 61.2725C276.669 59.4547 275.974 57.9285 274.842 56.6938C273.711 55.4591 271.996 54.8417 269.698 54.8417C267.846 54.8417 266.088 55.3905 264.425 56.488C262.761 57.5855 261.466 59.0603 260.54 60.9124C259.511 63.2789 258.997 67.4632 258.997 73.4652Z" fill-rule="evenodd"/>
<path clip-path="url(#TextBounds)" d="M308.46 51.7549L308.46 53.4527C311.101 50.1944 313.845 47.8021 316.691 46.2759C319.538 44.7497 322.762 43.9865 326.363 43.9865C330.685 43.9865 334.663 45.1012 338.299 47.3305C341.934 49.5599 344.807 52.8181 346.916 57.1053C349.025 61.3925 350.08 66.4686 350.08 72.3334C350.08 76.6549 349.471 80.6248 348.254 84.2432C347.036 87.8616 345.364 90.8969 343.238 93.3492C341.111 95.8015 338.599 97.6878 335.701 99.0083C332.803 100.329 329.69 100.989 326.363 100.989C322.351 100.989 318.981 100.183 316.254 98.571C313.528 96.959 310.929 94.5925 308.46 91.4714L308.46 112.564C308.46 118.738 306.214 121.825 301.721 121.825C299.08 121.825 297.331 121.027 296.473 119.432C295.616 117.838 295.187 115.514 295.187 112.461L295.187 51.8578C295.187 49.1826 295.77 47.1848 296.936 45.8643C298.102 44.5439 299.697 43.8836 301.721 43.8836C303.71 43.8836 305.33 44.561 306.582 45.9158C307.834 47.2705 308.46 49.2169 308.46 51.7549ZM335.984 72.1791C335.984 68.475 335.418 65.2939 334.286 62.6358C333.154 59.9777 331.585 57.937 329.579 56.5137C327.572 55.0904 325.352 54.3787 322.916 54.3787C319.041 54.3787 315.774 55.9049 313.116 58.9574C310.458 62.0099 309.129 66.5028 309.129 72.4363C309.129 78.0268 310.449 82.374 313.09 85.4779C315.731 88.5819 319.007 90.1338 322.916 90.1338C325.249 90.1338 327.409 89.4564 329.399 88.1017C331.388 86.7469 332.983 84.7148 334.183 82.0053C335.384 79.2958 335.984 76.0204 335.984 72.1791Z" fill-rule="evenodd"/>
<path clip-path="url(#TextBounds)" d="M352.11 45.1184L353.653 45.1184L353.653 36.6812C353.653 34.4175 353.713 32.6426 353.833 31.3565C353.953 30.0703 354.288 28.9642 354.836 28.0382C355.385 27.0779 356.174 26.2976 357.203 25.6974C358.232 25.0972 359.381 24.7971 360.65 24.7971C362.433 24.7971 364.045 25.4659 365.486 26.8035C366.446 27.6952 367.055 28.7842 367.312 30.0703C367.569 31.3565 367.698 33.1828 367.698 35.5494L367.698 45.1184L372.843 45.1184C374.832 45.1184 376.349 45.5899 377.396 46.5331C378.442 47.4763 378.965 48.6853 378.965 50.1601C378.965 52.0465 378.219 53.3669 376.727 54.1215C375.235 54.876 373.1 55.2533 370.322 55.2533L367.698 55.2533L367.698 81.0793C367.698 83.2743 367.775 84.9635 367.929 86.1467C368.084 87.33 368.495 88.2903 369.164 89.0277C369.833 89.7651 370.922 90.1338 372.431 90.1338C373.254 90.1338 374.369 89.9881 375.775 89.6965C377.181 89.405 378.279 89.2592 379.068 89.2592C380.199 89.2592 381.22 89.7137 382.129 90.6226C383.037 91.5314 383.492 92.6547 383.492 93.9923C383.492 96.2559 382.257 97.988 379.788 99.1884C377.318 100.389 373.769 100.989 369.138 100.989C364.748 100.989 361.421 100.252 359.158 98.7768C356.894 97.302 355.411 95.2613 354.708 92.6547C354.005 90.0481 353.653 86.5669 353.653 82.2111L353.653 55.2533L351.801 55.2533C349.777 55.2533 348.234 54.7731 347.171 53.8128C346.108 52.8524 345.576 51.6349 345.576 50.1601C345.576 48.6853 346.133 47.4763 347.248 46.5331C348.363 45.5899 349.983 45.1184 352.11 45.1184Z" fill-rule="evenodd"/>
<path clip-path="url(#TextBounds)" d="M431.206 72.4363C431.206 76.6206 430.554 80.4791 429.251 84.0117C427.948 87.5444 426.061 90.5797 423.592 93.1177C421.122 95.6557 418.173 97.6021 414.743 98.9569C411.313 100.312 407.455 100.989 403.168 100.989C398.915 100.989 395.091 100.303 391.695 98.9311C388.3 97.5592 385.359 95.5957 382.872 93.0405C380.385 90.4854 378.499 87.4672 377.213 83.986C375.927 80.5048 375.284 76.6549 375.284 72.4363C375.284 68.1834 375.935 64.2907 377.239 60.758C378.542 57.2254 380.411 54.2072 382.846 51.7035C385.281 49.1998 388.231 47.2705 391.695 45.9158C395.159 44.561 398.983 43.8836 403.168 43.8836C407.42 43.8836 411.279 44.5696 414.743 45.9415C418.207 47.3134 421.174 49.2684 423.643 51.8064C426.113 54.3444 427.99 57.3626 429.277 60.8609C430.563 64.3593 431.206 68.2177 431.206 72.4363ZM417.11 72.4363C417.11 66.7086 415.849 62.25 413.328 59.0603C410.807 55.8706 407.42 54.2758 403.168 54.2758C400.424 54.2758 398.006 54.9875 395.914 56.4108C393.822 57.8342 392.21 59.9349 391.078 62.713C389.946 65.4911 389.38 68.7322 389.38 72.4363C389.38 76.1061 389.937 79.313 391.052 82.0568C392.167 84.8006 393.761 86.9013 395.836 88.3589C397.911 89.8166 400.355 90.5454 403.168 90.5454C407.42 90.5454 410.807 88.942 413.328 85.7352C415.849 82.5284 417.11 78.0954 417.11 72.4363Z" fill-rule="evenodd"/>
<path clip-path="url(#TextBounds)" d="M445.017 51.652L445.017 53.3498C447.486 50.0915 450.187 47.6992 453.119 46.173C456.052 44.6468 459.422 43.8836 463.229 43.8836C466.933 43.8836 470.242 44.6896 473.158 46.3016C476.073 47.9136 478.251 50.1944 479.691 53.144C480.617 54.8588 481.218 56.7109 481.492 58.7002C481.766 60.6894 481.904 63.2274 481.904 66.3142L481.904 92.4489C481.904 95.2613 481.26 97.3877 479.974 98.8282C478.688 100.269 477.016 100.989 474.958 100.989C472.866 100.989 471.168 100.252 469.865 98.7768C468.562 97.302 467.91 95.1927 467.91 92.4489L467.91 69.0409C467.91 64.4107 467.267 60.8695 465.981 58.4172C464.695 55.9649 462.131 54.7388 458.29 54.7388C455.786 54.7388 453.505 55.4848 451.447 56.9767C449.39 58.4687 447.88 60.5179 446.92 63.1245C446.234 65.2167 445.891 69.1266 445.891 74.8543L445.891 92.4489C445.891 95.2956 445.231 97.4306 443.91 98.854C442.59 100.277 440.884 100.989 438.792 100.989C436.768 100.989 435.105 100.252 433.801 98.7768C432.498 97.302 431.846 95.1927 431.846 92.4489L431.846 51.8578C431.846 49.1826 432.429 47.1848 433.596 45.8643C434.762 44.5439 436.356 43.8836 438.38 43.8836C439.615 43.8836 440.729 44.1752 441.724 44.7582C442.719 45.3413 443.516 46.2159 444.116 47.382C444.716 48.5481 445.017 49.9715 445.017 51.652Z" fill-rule="evenodd"/>
</g>
</g>
</svg>
